HIERARCHY
ROOT hip
{
	OFFSET 0.000000 0.000000 0.000000 
	CHANNELS 6 Xposition Yposition Zposition Xrotation Zrotation Yrotation
	JOINT abdomen
	{
		OFFSET 0.000000 3.402643 0.000000 
		CHANNELS 3 Xrotation Zrotation Yrotation
		JOINT chest
		{
			OFFSET 0.000000 8.438565 -0.680529 
			CHANNELS 3 Xrotation Zrotation Yrotation
			JOINT neck
			{
				OFFSET 0.000000 10.207942 -0.272212 
				CHANNELS 3 Xrotation Zrotation Yrotation
				JOINT head
				{
					OFFSET 0.000000 3.130431 0.000000 
					CHANNELS 3 Xrotation Zrotation Yrotation
					End Site
					{
						OFFSET 0.000000 3.130435 0.000000 
					}
				}
			}
			JOINT lCollar
			{
				OFFSET 3.470700 6.669187 -0.816635 
				CHANNELS 3 Yrotation Zrotation Xrotation
				JOINT lShldr
				{
					OFFSET 3.198488 0.000000 0.000000 
					CHANNELS 3 Zrotation Yrotation Xrotation
					JOINT lForeArm
					{
						OFFSET 10.139888 0.000000 0.000000 
						CHANNELS 3 Yrotation Zrotation Xrotation
						JOINT lHand
						{
							OFFSET 8.370511 0.000000 0.000000 
							CHANNELS 3 Zrotation Yrotation Xrotation
							End Site
							{
								OFFSET 4.083176 0.000000 0.000000 
							}
						}
					}
				}
			}
			JOINT rCollar
			{
				OFFSET -3.470700 6.669187 -0.816635 
				CHANNELS 3 Yrotation Zrotation Xrotation
				JOINT rShldr
				{
					OFFSET -3.198488 0.000000 0.000000 
					CHANNELS 3 Zrotation Yrotation Xrotation
					JOINT rForeArm
					{
						OFFSET -10.139888 0.000000 0.000000 
						CHANNELS 3 Yrotation Zrotation Xrotation
						JOINT rHand
						{
							OFFSET -8.370511 0.000000 0.000000 
							CHANNELS 3 Zrotation Yrotation Xrotation
							End Site
							{
								OFFSET -4.083176 0.000000 0.000000 
							}
						}
					}
				}
			}
		}
	}
	JOINT lThigh
	{
		OFFSET 5.308129 -1.633274 1.361059 
		CHANNELS 3 Xrotation Zrotation Yrotation
		JOINT lShin
		{
			OFFSET -2.041588 -20.007561 0.000000 
			CHANNELS 3 Xrotation Zrotation Yrotation
			JOINT lFoot
			{
				OFFSET 0.000000 -19.190928 -1.224953 
				CHANNELS 3 Xrotation Yrotation Zrotation
				End Site
				{
					OFFSET 0.000000 -2.449906 4.627600 
				}
			}
		}
	}
	JOINT rThigh
	{
		OFFSET -5.308129 -1.633274 1.361059 
		CHANNELS 3 Xrotation Zrotation Yrotation
		JOINT rShin
		{
			OFFSET 2.041588 -20.007561 0.000000 
			CHANNELS 3 Xrotation Zrotation Yrotation
			JOINT rFoot
			{
				OFFSET 0.000000 -19.190928 -1.224953 
				CHANNELS 3 Xrotation Yrotation Zrotation
				End Site
				{
					OFFSET 0.000000 -2.449906 4.627600 
				}
			}
		}
	}
}
MOTION
Frames: 8
Frame Time: 0.016667
-0.048956 41.778755 0.852749 1.220940 -1.132560 -3.413000 -17.412600 0.484467 0.042231 26.367901 0.903536 0.131159 4.867990 3.620240 0.199294 8.351930 5.473440 0.650329 2.000000 -2.000000 0.000000 91.992104 -178.115005 0.053330 28.125299 -0.335421 0.064508 0.064723 -0.056619 -157.585999 -2.000000 2.000000 0.000000 -91.299896 -177.820007 -7.466150 -28.389000 0.335123 0.065006 1.699790 -0.579131 -146.292007 -6.373831 -1.226874 1.161177 24.557835 3.049813 1.823868 -16.329346 8.172118 2.823525 -9.675725 4.920180 2.187754 32.834431 -2.602377 -2.463784 -22.371227 -5.985928 -2.539284 
-0.046880 41.779911 0.847888 1.211170 -1.122800 -3.412600 -17.441999 0.492746 0.008731 26.328899 0.923031 0.122744 4.817490 3.632540 0.223305 8.322590 5.483450 0.658030 2.000000 -2.000000 0.000000 91.894501 -178.085999 -0.161444 27.812799 -0.335771 0.063849 0.064589 -0.056261 -157.449005 -2.000000 2.000000 0.000000 -91.338898 -177.800995 -7.407610 -28.389000 0.335123 0.065006 1.690120 -0.579198 -146.300995 -6.449257 -1.245027 1.177047 24.653555 3.069178 1.816930 -16.342524 8.192364 2.824370 -9.682655 4.907929 2.196691 32.853928 -2.603520 -2.463803 -22.370766 -5.947311 -2.526458 
-0.045639 41.780170 0.844039 1.211170 -1.122800 -3.422360 -17.461500 0.495157 -0.012636 26.289801 0.942528 0.114303 4.747970 3.634610 0.234365 8.283440 5.493550 0.655020 2.000000 -2.000000 0.000000 91.816299 -178.074997 -0.376264 27.539400 -0.336074 0.063272 0.064426 -0.055825 -157.283005 -2.000000 2.000000 0.000000 -91.358398 -177.761993 -7.378400 -28.398701 0.335112 0.065027 1.690220 -0.579264 -146.311005 -6.400250 -1.238879 1.182846 24.634438 3.064391 1.816182 -16.363657 8.201414 2.808922 -9.672517 4.906157 2.197872 32.873562 -2.602819 -2.463272 -22.399225 -5.958197 -2.523990 
-0.044354 41.780552 0.840469 1.201400 -1.122800 -3.422170 -17.481100 0.491680 -0.021932 26.250799 0.942592 0.103895 4.709000 3.654470 0.231174 8.244280 5.503640 0.651997 2.000000 -2.000000 0.000000 91.757698 -178.123993 -0.503333 27.373301 -0.336256 0.062920 0.064312 -0.055518 -157.166000 -2.000000 2.000000 0.000000 -91.368202 -177.712997 -7.358990 -28.418301 0.335090 0.065068 1.690320 -0.579331 -146.320999 -6.438690 -1.245505 1.185962 24.643715 3.069228 1.817058 -16.317675 8.201628 2.815695 -9.683037 4.907992 2.206414 32.853874 -2.604398 -2.464037 -22.369944 -5.946254 -2.537114 
-0.042699 41.781071 0.836394 1.201400 -1.122800 -3.422170 -17.500601 0.488203 -0.031228 26.231300 0.952342 0.104541 4.660210 3.664700 0.225957 8.224660 5.503820 0.650123 2.000000 -2.000000 0.000000 91.718697 -178.201996 -0.542581 27.295200 -0.336342 0.062754 0.064265 -0.055389 -157.117004 -2.000000 2.000000 0.000000 -91.377998 -177.673996 -7.329780 -28.427999 0.335079 0.065088 1.690420 -0.579397 -146.330994 -6.409338 -1.246624 1.173781 24.605398 3.060322 1.815712 -16.324774 8.208894 2.820700 -9.683419 4.907268 2.206429 32.882954 -2.608524 -2.464682 -22.389912 -5.951274 -2.530262 
-0.040470 41.781712 0.831827 1.211170 -1.113030 -3.422150 -17.510401 0.494063 -0.043387 26.221500 0.971794 0.096543 4.640780 3.684360 0.225130 8.205130 5.513740 0.648960 2.000000 -2.000000 0.000000 91.679604 -178.270004 -0.572041 27.246401 -0.336395 0.062651 0.064237 -0.055312 -157.087997 -2.000000 2.000000 0.000000 -91.387703 -177.654007 -7.300530 -28.437799 0.335068 0.065109 1.690610 -0.579530 -146.350006 -6.378861 -1.250731 1.171277 24.547205 3.053217 1.814980 -16.305586 8.224282 2.827516 -9.699736 4.896556 2.194802 32.852730 -2.609562 -2.445961 -22.349461 -5.947086 -2.536353 
-0.037574 41.781967 0.827088 1.211170 -1.113030 -3.422150 -17.520201 0.490609 -0.052608 26.211800 0.971811 0.096378 4.661140 3.732140 0.221784 8.205310 5.533220 0.640614 2.000000 -2.000000 0.000000 91.650299 -178.348007 -0.591759 27.207300 -0.336438 0.062568 0.064218 -0.055261 -157.067993 -2.000000 2.000000 0.000000 -91.407204 -177.634995 -7.290810 -28.437799 0.335068 0.065109 1.690710 -0.579596 -146.360001 -6.387909 -1.258593 1.162216 24.538448 3.043906 1.813183 -16.296295 8.221135 2.824897 -9.714748 4.889867 2.203393 32.854073 -2.601433 -2.463223 -22.351225 -5.944780 -2.523550 
-0.034492 41.781326 0.822967 1.211170 -1.113030 -3.431920 -17.529900 0.490585 -0.052686 26.202000 0.971827 0.096212 4.701630 3.779040 0.211194 8.215300 5.552610 0.633213 2.000000 -2.000000 0.000000 91.621101 -178.425995 -0.611476 27.168301 -0.336481 0.062485 0.064199 -0.055210 -157.048996 -2.000000 2.000000 0.000000 -91.407204 -177.604996 -7.290890 -28.437799 0.335068 0.065109 1.690910 -0.579729 -146.378998 -6.426511 -1.264343 1.165355 24.634985 3.063101 1.825645 -16.351688 8.220127 2.829648 -9.709530 4.877186 2.184368 32.853649 -2.601892 -2.453618 -22.348255 -5.951409 -2.539060 
